<?xml version="1.0" standalone="no"?>
<!DOCTYPE svg PUBLIC "-//W3C//DTD SVG 20010904//EN"
 "http://www.w3.org/TR/2001/REC-SVG-20010904/DTD/svg10.dtd">
<svg version="1.0" xmlns="http://www.w3.org/2000/svg"
 width="162.000000pt" height="311.000000pt" viewBox="0 0 162.000000 311.000000"
 preserveAspectRatio="xMidYMid meet">
<metadata>
Created by potrace 1.16, written by Peter Selinger 2001-2019
</metadata>
<g transform="translate(0.000000,311.000000) scale(0.100000,-0.100000)"
fill="#000000" stroke="none">
<path d="M573 3096 c-50 -16 -99 -50 -114 -79 l-12 -22 24 21 c57 51 127 68
165 39 10 -8 33 -15 49 -15 45 -1 106 -32 142 -73 35 -40 59 -106 49 -132 -5
-15 -8 -15 -37 2 -48 28 -55 41 -28 51 l23 9 -21 12 c-12 6 -42 11 -66 11 -57
0 -103 -31 -133 -90 -33 -64 -29 -82 5 -28 30 48 73 78 110 78 25 0 77 -47 86
-77 3 -13 0 -27 -9 -35 -12 -11 -10 -17 16 -45 16 -17 31 -43 31 -57 2 -21 7
-26 29 -26 32 0 55 -29 64 -81 3 -18 8 -41 11 -49 3 -8 7 -22 9 -30 4 -25 106
-110 144 -121 19 -6 49 -9 65 -7 l30 3 -33 18 c-129 70 -199 220 -158 337 21
59 20 117 -2 160 -14 29 -22 34 -45 32 -22 -2 -29 3 -38 25 -14 39 -37 62 -84
85 -22 11 -53 33 -70 48 -50 47 -124 60 -202 36z"/>
<path d="M582 3009 c-9 -4 -28 -20 -42 -35 -14 -16 -18 -23 -10 -16 17 14 50
16 50 2 0 -5 -4 -10 -8 -10 -5 0 -29 -13 -53 -30 -24 -16 -56 -30 -71 -30 -23
0 -28 -5 -28 -23 0 -26 -20 -47 -62 -65 -19 -8 -28 -19 -28 -34 0 -17 3 -19 9
-9 12 18 50 5 60 -21 4 -12 1 -48 -7 -82 -8 -34 -11 -82 -8 -108 6 -59 41
-128 64 -128 9 0 36 -11 60 -25 l42 -24 0 33 c0 28 -7 38 -40 60 -77 50 -98
118 -60 188 13 25 17 47 13 71 -3 23 1 49 15 79 12 29 16 50 11 60 -6 11 -4
20 7 29 13 11 14 9 10 -15 -4 -23 -2 -27 12 -21 9 4 24 9 32 12 9 2 21 16 28
31 6 15 23 39 37 55 21 22 34 27 75 27 27 0 51 -4 54 -9 3 -4 -5 -6 -18 -4
-25 5 -72 -14 -62 -25 3 -3 32 -5 64 -3 35 1 68 -4 85 -13 32 -18 35 -8 6 28
-35 44 -89 66 -159 63 -33 -1 -69 -5 -78 -8z"/>
<path d="M753 2078 c3 -9 2 -18 -3 -20 -5 -2 -3 -23 3 -47 10 -35 9 -45 -1
-49 -6 -2 -10 -8 -6 -13 10 -18 -20 -9 -42 12 l-23 21 6 -22 c3 -12 18 -26 33
-31 27 -10 29 -12 33 -64 3 -38 40 -63 63 -44 12 10 14 24 9 63 -9 62 -41 162
-62 190 -11 15 -14 16 -10 4z"/>
<path d="M887 1929 c4 -28 3 -40 -4 -36 -20 13 -32 -19 -31 -86 1 -37 -2 -70
-5 -74 -4 -3 -7 7 -7 23 0 53 -31 67 -43 19 -5 -19 -5 -19 -6 1 -1 26 -45 48
-69 34 -11 -6 -12 -10 -4 -10 7 0 20 -17 28 -37 13 -31 14 -43 3 -75 -25 -76
-11 -131 25 -105 14 10 19 27 19 73 0 32 2 51 4 42 4 -16 6 -16 30 -1 21 14
26 14 34 2 5 -8 8 -23 7 -34 -1 -17 -1 -17 -5 3 -5 25 -16 28 -32 8 -16 -19
-10 -78 8 -84 10 -3 12 2 7 22 -5 22 -3 26 14 26 11 0 20 5 20 11 0 5 3 8 8 6
4 -3 15 22 26 54 14 46 16 65 8 82 l-11 22 0 -22 c-1 -14 -7 -23 -16 -23 -20
0 -20 58 0 84 19 25 19 90 1 105 -12 10 -13 5 -9 -30z"/>
<path d="M1014 1739 c-3 -5 0 -9 7 -9 6 0 34 -14 61 -30 27 -17 46 -25 42 -19
-4 8 -3 9 5 5 8 -5 9 -12 2 -20 -7 -8 -5 -28 5 -62 16 -52 13 -159 -6 -178
-14 -14 -13 -29 1 -20 7 4 10 1 7 -6 -4 -12 -36 -19 -100 -23 -15 -1 -17 -11
-17 -58 1 -72 -7 -99 -38 -125 l-25 -21 19 -44 19 -44 18 27 c11 17 21 59 26
114 6 73 11 91 30 106 12 10 30 18 40 18 10 0 24 16 35 41 10 22 27 46 37 53
17 12 17 20 9 82 -15 102 -51 192 -71 179 -5 -3 -13 2 -18 10 -10 19 -79 37
-88 24z"/>
<path d="M514 1721 c-41 -25 -70 -88 -84 -184 -11 -74 -10 -80 8 -93 11 -7 29
-34 41 -59 19 -41 24 -45 56 -45 40 0 41 -3 49 -123 3 -50 11 -88 22 -104 l17
-26 12 24 c25 49 27 67 6 74 -28 9 -46 62 -45 133 l2 63 -25 -16 c-14 -9 -27
-14 -31 -11 -3 3 0 6 7 6 7 0 9 5 6 11 -4 6 -14 8 -22 5 -8 -3 -12 -2 -9 3 3
5 -1 12 -10 15 -49 19 -56 164 -13 253 13 26 22 53 20 58 -1 6 1 7 5 3 8 -9
34 9 34 23 0 13 -12 11 -46 -10z"/>
<path d="M708 1673 c-30 -35 -36 -56 -24 -77 6 -12 14 -23 17 -26 22 -19 30
-56 23 -119 -7 -75 0 -87 42 -77 29 8 35 52 7 58 -16 3 -15 7 8 30 15 15 35
25 45 24 11 -2 22 1 25 6 9 14 4 -54 -6 -76 -5 -11 -4 -21 4 -26 7 -4 12 -11
12 -16 -1 -5 7 -9 17 -9 15 0 17 11 18 80 3 130 8 156 33 176 l23 19 -23 0
c-39 -1 -59 -23 -59 -64 0 -21 -4 -35 -9 -31 -5 3 -12 1 -16 -5 -4 -6 -10 -8
-15 -5 -4 3 -10 -2 -14 -10 -3 -8 -10 -15 -16 -15 -7 0 -7 7 1 21 16 31 -4 48
-30 25 -19 -17 -20 -17 -36 8 -12 18 -16 41 -13 76 1 27 3 50 2 50 0 0 -8 -8
-16 -17z"/>
<path d="M692 1497 c-1 -11 -10 -31 -21 -45 -10 -15 -22 -52 -25 -82 l-7 -55
18 35 17 35 4 -39 c2 -27 9 -40 23 -43 10 -3 16 -9 13 -14 -12 -20 8 -28 31
-13 13 8 36 16 52 18 15 1 27 8 26 14 -5 20 12 13 42 -18 28 -29 49 -32 39 -6
-3 8 3 16 15 19 14 3 20 15 23 43 l3 39 18 -35 18 -35 -5 50 c-7 58 -51 153
-60 130 -3 -9 -3 -35 0 -60 12 -85 -19 -124 -83 -105 -18 5 -22 9 -9 9 18 1
18 2 2 20 -17 19 -18 18 -43 -5 -55 -51 -81 -27 -86 81 -1 44 -4 72 -5 62z"/>
<path d="M1254 1355 c-9 -14 -22 -24 -28 -22 -6 2 -25 -2 -43 -10 -18 -7 -47
-13 -66 -13 l-34 0 -1 -62 c0 -35 -5 -76 -11 -91 -6 -16 -9 -40 -6 -55 4 -19
3 -22 -3 -9 -7 17 -9 17 -26 -2 -11 -12 -25 -21 -31 -21 -12 0 -31 -67 -22
-76 11 -11 74 48 100 94 23 42 30 67 31 114 2 71 20 91 78 86 20 -2 34 0 32 3
-8 14 25 30 73 35 43 6 53 3 81 -21 21 -18 32 -22 32 -13 0 27 -57 69 -112 82
-22 5 -31 1 -44 -19z"/>
<path d="M656 1307 c-6 -26 -3 -56 8 -97 15 -52 15 -63 3 -87 -10 -19 -15 -59
-14 -121 0 -90 1 -92 20 -75 34 31 39 50 22 89 -20 48 -19 55 10 98 14 20 25
47 26 59 l0 22 9 -22 c11 -28 54 -21 47 8 -3 10 -1 35 3 54 8 33 6 36 -13 33
-15 -2 -26 -15 -34 -38 -9 -26 -12 -29 -12 -12 -1 13 -7 22 -16 22 -8 0 -15 9
-15 20 0 11 -5 19 -12 18 -7 -2 -15 12 -18 32 l-6 35 -8 -38z"/>
<path d="M948 1304 c-2 -17 -8 -28 -15 -26 -8 1 -13 -9 -13 -25 0 -14 -7 -34
-16 -44 -12 -13 -13 -22 -5 -37 28 -52 41 -111 31 -137 -16 -43 -12 -80 13
-103 l23 -22 1 88 c1 58 -3 99 -14 123 -13 33 -13 41 1 83 18 52 20 94 7 115
-7 11 -10 7 -13 -15z"/>
<path d="M224 1248 c-69 -22 -118 -94 -106 -155 5 -24 5 -23 17 11 19 54 43
76 82 76 28 0 44 -10 88 -54 52 -52 55 -53 71 -35 9 11 23 19 30 19 7 0 14 6
17 13 10 30 67 -51 67 -96 0 -27 38 -66 95 -96 l40 -21 5 27 c5 25 0 31 -42
56 -49 28 -101 101 -113 159 -6 26 -7 26 -25 8 -15 -15 -28 -18 -57 -13 -52 7
-78 26 -105 73 -13 22 -25 39 -28 39 -3 -1 -19 -6 -36 -11z"/>
<path d="M1341 1233 c-6 -13 -11 -30 -11 -37 0 -42 -96 -62 -150 -31 -35 20
-37 19 -43 -23 -10 -60 -61 -130 -110 -152 -39 -18 -43 -22 -39 -49 5 -34 14
-33 79 11 45 31 63 55 63 86 0 11 9 31 21 46 25 32 64 34 95 5 l23 -21 14 33
c13 31 47 71 47 55 0 -4 10 0 22 8 31 22 81 20 102 -3 10 -11 24 -37 32 -58
l13 -38 1 43 c0 74 -35 119 -112 140 -33 9 -37 8 -47 -15z"/>
<path d="M774 1118 c14 -44 19 -155 8 -174 -8 -14 -10 -4 -11 46 0 47 -4 66
-15 72 -9 5 -16 18 -16 28 0 28 -15 25 -28 -5 -9 -19 -8 -32 3 -59 26 -61 23
-71 -39 -123 -37 -32 -36 -77 4 -98 40 -21 60 -19 60 5 0 11 6 20 14 20 26 0
50 71 54 158 5 102 -3 152 -25 152 -11 0 -14 -6 -9 -22z"/>
<path d="M833 1075 c6 -45 6 -84 -1 -121 -9 -40 -8 -60 1 -81 35 -80 81 -112
72 -50 -5 31 -5 31 7 7 6 -14 13 -26 14 -28 1 -2 12 1 23 8 25 13 28 61 5 84
-21 21 -29 20 -42 -6 -10 -21 -11 -21 -12 12 0 19 -1 51 -1 70 -1 19 2 53 6
75 5 29 2 45 -9 60 -14 19 -15 16 -16 -40 0 -33 -5 -67 -11 -75 -8 -12 -10
-10 -5 10 9 44 -7 134 -25 138 -14 2 -14 -5 -6 -63z"/>
<path d="M127 1038 c-43 -58 -57 -95 -56 -150 l1 -53 13 49 c28 100 77 131
151 96 33 -17 47 -18 69 -10 21 8 34 7 56 -4 21 -10 29 -11 29 -3 1 21 30 -26
30 -48 0 -34 23 -73 50 -86 14 -6 55 -14 92 -17 l67 -5 -2 35 -2 34 -50 -4
c-46 -3 -53 -1 -95 35 -24 21 -40 31 -35 23 8 -13 6 -13 -8 -2 -9 8 -22 29
-29 47 -6 19 -15 32 -18 30 -4 -3 -5 7 -2 21 l5 25 -34 -20 c-19 -12 -49 -21
-67 -21 -36 0 -97 23 -123 46 -15 14 -19 12 -42 -18z"/>
<path d="M1204 1008 c-11 -33 -33 -67 -61 -96 -44 -43 -46 -44 -97 -40 l-53 4
-1 -33 -1 -33 58 0 c43 0 71 7 112 28 48 24 54 31 56 60 2 40 25 69 62 77 15
3 28 12 28 20 0 8 -3 15 -7 15 -4 0 -23 11 -43 24 l-36 25 -17 -51z"/>
<path d="M18 923 c-19 -45 -14 -161 10 -221 27 -70 79 -150 102 -157 24 -8 32
-30 20 -60 -9 -22 -6 -27 16 -35 56 -22 60 -19 92 78 15 45 1 65 -65 97 -100
49 -167 160 -161 265 1 33 2 60 0 60 -1 0 -8 -12 -14 -27z"/>
<path d="M1588 868 c-6 -72 -32 -130 -83 -187 -19 -21 -35 -43 -35 -48 0 -12
-43 -53 -55 -53 -5 0 -4 5 3 12 19 19 14 30 -10 22 -35 -11 -100 -6 -147 11
-24 8 -53 13 -63 9 -38 -12 -10 -122 46 -173 37 -34 105 -36 122 -2 12 23 12
23 19 2 3 -12 15 -21 26 -21 21 0 26 25 7 33 -10 4 -10 6 0 6 7 1 12 14 12 31
0 29 34 62 42 40 7 -22 53 19 84 75 43 78 68 176 60 233 -10 76 -23 80 -28 10z"/>
<path d="M783 821 c-13 -22 -20 -47 -16 -59 5 -22 5 -22 -51 3 -31 14 -58 25
-61 25 -2 0 1 -14 7 -31 6 -16 8 -57 6 -90 -2 -32 0 -59 5 -59 5 0 28 -20 51
-44 46 -50 92 -69 102 -42 3 9 1 23 -5 30 -10 12 -8 13 8 9 12 -3 21 -9 21
-14 0 -18 22 -8 46 20 14 17 33 32 43 36 15 4 17 14 13 65 -2 32 1 73 7 90 10
30 9 31 -12 24 -50 -15 -78 -36 -91 -69 -21 -50 -30 -43 -23 20 5 53 -7 125
-21 125 -4 0 -17 -17 -29 -39z"/>
<path d="M1527 784 c-24 -32 -131 -84 -171 -83 -19 1 -24 3 -11 6 47 10 50 13
28 26 -11 7 -33 21 -48 31 -26 19 -27 19 -62 1 -50 -27 -110 -117 -67 -101 9
3 52 -1 96 -10 58 -12 83 -13 91 -5 8 8 7 11 -4 11 -8 0 -24 7 -35 15 -18 14
-17 14 9 5 70 -25 132 1 177 75 25 41 23 64 -3 29z"/>
<path d="M70 793 c0 -4 11 -25 25 -45 30 -44 97 -93 141 -102 28 -6 35 -3 64
31 l32 38 -6 -30 -7 -30 61 3 c33 2 60 7 60 11 0 14 -50 75 -77 93 -39 25 -46
23 -38 -12 6 -29 6 -29 -20 -16 -23 12 -30 12 -53 -1 -36 -20 -99 -4 -147 38
-19 17 -35 27 -35 22z"/>
<path d="M1210 784 c-25 -8 -60 -28 -78 -45 -33 -30 -34 -31 -15 -52 15 -19
14 -19 -9 2 l-27 24 22 18 22 18 -38 1 c-21 0 -51 7 -68 15 -28 15 -30 15 -39
-10 -13 -35 -13 -112 0 -120 6 -4 27 5 46 20 27 21 41 25 62 20 57 -15 60 -14
72 16 7 16 33 48 58 69 25 22 43 40 41 39 -2 0 -24 -7 -49 -15z"/>
<path d="M345 621 c-34 -12 -50 -23 -49 -35 1 -9 -3 -16 -8 -16 -7 0 -8 -17
-4 -47 4 -27 8 -57 10 -68 2 -25 39 -23 76 3 54 39 92 162 54 176 -20 8 -20 8
-79 -13z"/>
<path d="M160 366 c24 -84 64 -157 120 -219 47 -52 127 -110 141 -101 4 2 23
-5 41 -16 24 -15 50 -20 98 -19 l65 0 -55 18 c-90 30 -143 57 -183 95 -33 32
-38 40 -32 67 9 40 28 32 36 -15 3 -20 12 -42 19 -49 10 -10 10 -7 0 12 -7 13
-9 36 -6 52 4 22 1 29 -14 34 -26 8 -43 41 -36 68 3 12 -1 29 -11 39 -11 12
-14 28 -10 53 6 34 5 35 -21 29 -56 -12 -55 -10 -49 -76 6 -71 -7 -61 -23 19
-9 43 -15 52 -38 58 -15 3 -35 8 -44 11 -16 5 -15 0 2 -60z"/>
<path d="M1428 418 c-33 -9 -37 -14 -48 -61 -17 -72 -32 -94 -24 -35 7 55 -1
88 -23 88 -13 0 -13 -3 -3 -15 13 -16 8 -132 -7 -171 -4 -12 -3 -15 5 -10 18
11 14 -3 -8 -31 -24 -30 -24 -20 -5 67 17 79 19 140 4 140 -6 0 -9 -6 -6 -14
7 -18 -20 -56 -39 -56 -17 0 -18 -12 -3 -27 15 -15 -11 -59 -41 -68 -15 -5
-19 -12 -15 -26 10 -32 -14 -87 -50 -115 -19 -14 -65 -36 -102 -49 l-68 -24
56 0 c67 -1 137 19 189 53 35 23 38 29 34 58 -3 18 -1 44 5 58 9 21 10 17 5
-23 -4 -26 -4 -47 0 -47 3 0 17 17 31 37 26 39 33 38 15 0 -6 -12 5 -4 26 18
20 22 49 67 65 100 31 67 62 166 51 164 -4 -1 -24 -5 -44 -11z"/>
</g>
</svg>
