<?xml version="1.0" standalone="no"?>
<!DOCTYPE svg PUBLIC "-//W3C//DTD SVG 20010904//EN"
 "http://www.w3.org/TR/2001/REC-SVG-20010904/DTD/svg10.dtd">
<svg version="1.0" xmlns="http://www.w3.org/2000/svg"
 width="612.000000pt" height="490.000000pt" viewBox="0 0 612.000000 490.000000"
 preserveAspectRatio="xMidYMid meet">
<metadata>
Created by potrace 1.16, written by Peter Selinger 2001-2019
</metadata>
<g transform="translate(0.000000,490.000000) scale(0.100000,-0.100000)"
fill="#000000" stroke="none">
<path d="M2940 3554 c-211 -32 -369 -91 -523 -196 -82 -55 -217 -187 -271
-262 -185 -260 -256 -580 -197 -883 46 -237 143 -417 315 -589 78 -77 242
-201 253 -190 2 2 -10 32 -27 67 -16 35 -30 72 -30 81 0 10 -19 34 -42 55
-124 109 -230 248 -283 367 -117 265 -117 577 0 842 63 143 203 311 338 408
87 62 232 129 342 158 129 33 359 33 490 -1 177 -45 338 -137 470 -267 297
-294 381 -736 214 -1127 -54 -128 -158 -266 -286 -380 -24 -21 -43 -45 -43
-55 0 -9 -14 -46 -30 -81 -17 -35 -29 -66 -27 -68 3 -2 40 20 83 49 98 65 206
168 278 261 302 397 302 968 0 1364 -186 243 -463 404 -764 443 -73 9 -209 11
-260 4z"/>
<path d="M2948 3300 c-40 -12 -98 -50 -98 -63 0 -7 16 -22 35 -35 19 -12 35
-27 35 -32 0 -26 82 1 128 43 31 28 29 70 -3 85 -29 14 -58 14 -97 2z"/>
<path d="M3092 3266 c2 -23 11 -31 58 -47 110 -39 162 -109 139 -191 -14 -53
-45 -101 -111 -174 -131 -144 -181 -254 -203 -447 -4 -32 -16 -74 -27 -94 -20
-34 -22 -35 -67 -28 -25 4 -46 8 -46 8 -1 1 -20 28 -44 59 -48 63 -48 59 1
166 15 36 27 66 25 68 -7 7 -119 -177 -114 -189 13 -34 103 -140 126 -148 63
-23 71 -31 71 -71 0 -44 -3 -45 -48 -18 -20 12 -50 20 -77 20 l-45 0 2 -77 1
-78 6 60 c6 56 8 60 33 63 45 5 168 -112 143 -136 -2 -2 -23 7 -47 21 -29 16
-51 22 -69 18 l-25 -6 17 -55 18 -55 -6 48 c-4 33 -2 47 7 47 23 0 99 -52 125
-86 l27 -36 -31 -30 c-27 -27 -35 -29 -68 -23 -90 16 -181 93 -233 196 l-19
37 -49 -47 c-27 -25 -59 -53 -73 -62 -21 -15 -24 -25 -27 -98 -7 -155 32 -334
95 -429 75 -112 201 -140 348 -76 l40 18 -46 7 c-89 14 -181 83 -195 147 -3
15 -7 32 -9 38 -2 6 0 16 5 23 5 9 9 5 14 -12 5 -22 12 -25 72 -30 53 -4 74
-11 111 -37 44 -32 45 -32 38 -9 -11 39 -67 114 -115 154 -25 21 -87 58 -138
82 -119 57 -147 105 -106 184 l15 30 28 -38 c40 -55 87 -92 156 -124 101 -46
108 -46 154 8 23 25 43 44 44 42 2 -2 11 -17 21 -32 21 -35 31 -30 16 7 -14
37 -5 48 26 34 20 -9 30 -9 46 1 29 18 45 0 30 -34 -17 -36 -15 -41 8 -20 11
10 20 24 20 32 0 21 9 16 53 -33 l42 -46 66 22 c76 25 149 76 195 137 27 35
34 40 44 28 20 -24 24 -89 6 -123 -12 -23 -40 -42 -118 -81 -133 -65 -219
-147 -243 -231 -7 -24 -7 -24 11 -8 34 30 108 58 155 58 38 0 48 4 57 23 10
21 11 20 11 -11 2 -87 -107 -180 -215 -183 -26 -1 -23 -4 26 -27 80 -38 186
-38 251 0 106 62 179 256 179 474 0 105 -7 130 -41 144 -16 7 -47 32 -70 57
-22 24 -42 43 -43 41 -1 -2 -9 -19 -17 -38 -45 -97 -145 -181 -235 -195 -35
-6 -42 -3 -68 24 l-29 30 26 34 c26 34 104 87 127 87 9 0 11 -14 7 -47 l-6
-48 18 55 19 55 -31 7 c-23 5 -40 0 -70 -19 -21 -13 -41 -23 -43 -20 -11 11
15 49 63 92 41 36 59 46 80 43 26 -3 28 -7 34 -58 l6 -55 1 73 2 72 -45 0
c-27 0 -57 -8 -77 -20 -43 -26 -45 -26 -50 15 -4 38 14 58 67 71 17 4 45 32
81 79 30 39 54 75 54 78 0 10 -113 188 -117 184 -1 -2 13 -41 33 -86 19 -45
34 -85 32 -89 -2 -4 -21 -33 -43 -64 -35 -49 -45 -57 -82 -63 -24 -3 -46 -4
-51 -1 -4 2 -18 26 -31 52 -21 42 -23 56 -18 133 7 109 33 189 103 313 123
219 139 267 110 343 -29 74 -125 139 -239 162 -26 5 -28 4 -25 -21z"/>
<path d="M2816 3189 c-19 -94 6 -162 84 -232 29 -26 55 -46 57 -43 2 2 -9 25
-26 51 -40 63 -47 99 -26 131 9 14 13 33 10 44 -6 18 -72 80 -86 80 -4 0 -9
-14 -13 -31z"/>
</g>
</svg>
